<?xml version="1.0" standalone="no"?><!DOCTYPE svg PUBLIC "-//W3C//DTD SVG 1.1//EN" "http://www.w3.org/Graphics/SVG/1.1/DTD/svg11.dtd"><svg t="1772863770274" class="icon" viewBox="0 0 1024 1024" version="1.1" xmlns="http://www.w3.org/2000/svg" p-id="10708" xmlns:xlink="http://www.w3.org/1999/xlink" width="256" height="256"><path d="M881.536 668.032Q913.066667 593.578667 913.066667 512q0-166.016-117.504-283.562667Q677.973333 110.933333 512 110.933333q-166.058667 0-283.562667 117.504-27.349333 27.392-49.024 59.392-21.802667 32.341333-36.949333 68.138667a34.133333 34.133333 0 0 1-62.890667-26.624q17.749333-41.898667 43.306667-79.744 25.301333-37.418667 57.301333-69.418667Q317.696 42.666667 512 42.666667t331.818667 137.514666Q981.333333 317.696 981.333333 512q0 95.402667-36.906666 182.613333a34.133333 34.133333 0 0 1-62.890667-26.581333zM110.933333 512A34.133333 34.133333 0 1 0 42.666667 512q0 194.304 137.514666 331.818667T512 981.333333q194.304 0 331.818667-137.514666a34.133333 34.133333 0 0 0-48.256-48.256Q677.973333 913.066667 512 913.066667q-166.058667 0-283.562667-117.504Q110.933333 677.973333 110.933333 512z" fill="#333333" p-id="10709"></path><path d="M174.848 605.568l-110.848-64a34.133333 34.133333 0 0 1 34.133333-59.136l110.848 64a34.133333 34.133333 0 0 1-34.133333 59.136zM938.368 661.248l-64-110.848a34.133333 34.133333 0 0 0-59.136 34.133333l64 110.848a34.133333 34.133333 0 0 0 59.136-34.133333z" fill="#333333" p-id="10710"></path></svg>